<svg width="99" height="99" viewBox="0 0 99 99" fill="none" xmlns="http://www.w3.org/2000/svg">
<path d="M26.0002 77C7.5002 78 8.50016 53.5 24.5003 54H88.5003H91.5M11 12.5C15.0834 21.6821 14.9741 26.5958 11 35M66.5 3H77.5C100 6 104.5 39.5 77.5 44.5" stroke="white" stroke-width="5" stroke-linecap="round"/>
<path d="M59.5002 3H7.00019C1.50011 5 1.99982 11 6.50002 12.5H77.5C89.5 15 89.5 32 77 35H8C1.00017 36.5 2 44.5 8 44.5L20 45M90.5 77C83.25 73.5 83 59.5 89.25 54.5H90.5C97 55 98 44.5 90.5 44.5H82L20 45M90.5 77C97.75 77.5 97.5 86.5 90.5 86.5H75.5V77M90.5 77H75.5M75.5 87.5V93C74 96 70.5 97 69 95L63.5 88.5C63.5 87.5 59 85 57.5 87.5L53 93C50 97 47 98 45 93V86.5M75.5 77V71C75.5 66 69 65 67 65.5L50 66C46.4126 66.2058 45 69 45 73V77M45 77H33M45 77V86.5M45 86.5H18.5C-1.5 82 -3 51.5 20 45M38.5 21.5V24.5M62 22V24.5M47 24C49.8326 26.0101 50.8827 25.9557 53.5 24" stroke="white" stroke-width="5" stroke-linecap="round"/>
</svg>
