<svg width="599" height="160" viewBox="0 0 599 160" fill="none" xmlns="http://www.w3.org/2000/svg">
<path d="M12.544 128V38.4H49.92C55.6373 38.4 60.4587 39.2533 64.384 40.96C68.3093 42.6667 71.2533 45.2267 73.216 48.64C75.264 51.968 76.288 56.064 76.288 60.928C76.288 65.792 74.9227 69.9307 72.192 73.344C69.5467 76.7573 65.8347 79.104 61.056 80.384V77.824C65.0667 78.6773 68.5653 80.2133 71.552 82.432C74.5387 84.5653 76.8427 87.2533 78.464 90.496C80.1707 93.7387 81.024 97.4507 81.024 101.632C81.024 105.899 80.3413 109.696 78.976 113.024C77.696 116.267 75.7333 118.997 73.088 121.216C70.528 123.435 67.4133 125.141 63.744 126.336C60.0747 127.445 55.8933 128 51.2 128H12.544ZM26.368 114.688H50.432C53.9307 114.688 56.8747 114.176 59.264 113.152C61.7387 112.128 63.616 110.635 64.896 108.672C66.2613 106.624 66.944 104.192 66.944 101.376C66.944 98.7307 66.2187 96.4693 64.768 94.592C63.4027 92.7147 61.44 91.3067 58.88 90.368C56.32 89.344 53.2907 88.832 49.792 88.832H26.368V114.688ZM26.368 75.52H49.152C51.712 75.52 53.9733 75.008 55.936 73.984C57.984 72.96 59.5627 71.552 60.672 69.76C61.8667 67.968 62.464 65.92 62.464 63.616C62.464 59.776 61.184 56.832 58.624 54.784C56.064 52.736 52.3947 51.712 47.616 51.712H26.368V75.52ZM265.748 107.008L265.108 92.672L297.236 60.8H315.028L265.748 107.008ZM253.716 128V33.28H266.9V128H253.716ZM299.028 128L273.684 98.432L283.028 89.856L315.924 128H299.028ZM328.642 128V60.8H341.826V128H328.642ZM335.042 45.952C332.226 45.952 330.05 45.2267 328.514 43.776C326.978 42.3253 326.21 40.2773 326.21 37.632C326.21 35.1573 326.978 33.152 328.514 31.616C330.135 30.08 332.311 29.312 335.042 29.312C337.858 29.312 340.034 30.0373 341.57 31.488C343.106 32.9387 343.874 34.9867 343.874 37.632C343.874 40.1067 343.063 42.112 341.442 43.648C339.906 45.184 337.773 45.952 335.042 45.952ZM384.491 129.28C378.859 129.28 373.782 128.299 369.259 126.336C364.736 124.373 360.982 121.472 357.995 117.632L366.955 109.952C369.515 112.939 372.288 115.115 375.275 116.48C378.347 117.76 381.803 118.4 385.643 118.4C387.179 118.4 388.587 118.229 389.867 117.888C391.232 117.461 392.384 116.864 393.323 116.096C394.347 115.328 395.115 114.432 395.627 113.408C396.139 112.299 396.395 111.104 396.395 109.824C396.395 107.605 395.584 105.813 393.963 104.448C393.11 103.851 391.744 103.211 389.867 102.528C388.075 101.76 385.728 100.992 382.827 100.224C377.878 98.944 373.824 97.4933 370.667 95.872C367.51 94.2507 365.078 92.416 363.371 90.368C362.091 88.7467 361.152 86.9973 360.555 85.12C359.958 83.1573 359.659 81.024 359.659 78.72C359.659 75.904 360.256 73.344 361.451 71.04C362.731 68.6507 364.438 66.6027 366.571 64.896C368.79 63.104 371.35 61.7387 374.251 60.8C377.238 59.8613 380.395 59.392 383.723 59.392C386.88 59.392 389.995 59.8187 393.067 60.672C396.224 61.5253 399.126 62.7627 401.771 64.384C404.416 66.0053 406.635 67.9253 408.427 70.144L400.875 78.464C399.254 76.8427 397.462 75.4347 395.499 74.24C393.622 72.96 391.702 71.9787 389.739 71.296C387.776 70.6133 385.984 70.272 384.363 70.272C382.571 70.272 380.95 70.4427 379.499 70.784C378.048 71.1253 376.811 71.6373 375.787 72.32C374.848 73.0027 374.123 73.856 373.611 74.88C373.099 75.904 372.843 77.056 372.843 78.336C372.928 79.4453 373.184 80.512 373.611 81.536C374.123 82.4747 374.806 83.2853 375.659 83.968C376.598 84.6507 378.006 85.376 379.883 86.144C381.76 86.912 384.15 87.6373 387.051 88.32C391.318 89.4293 394.816 90.6667 397.547 92.032C400.363 93.312 402.582 94.8053 404.203 96.512C405.91 98.1333 407.104 100.011 407.787 102.144C408.47 104.277 408.811 106.667 408.811 109.312C408.811 113.152 407.702 116.608 405.483 119.68C403.35 122.667 400.448 125.013 396.779 126.72C393.11 128.427 389.014 129.28 384.491 129.28ZM423.341 128V33.28H436.525V74.624L434.221 76.16C435.074 73.1733 436.738 70.4427 439.213 67.968C441.688 65.408 444.632 63.36 448.045 61.824C451.458 60.2027 454.957 59.392 458.541 59.392C463.661 59.392 467.928 60.416 471.341 62.464C474.754 64.4267 477.314 67.456 479.021 71.552C480.728 75.648 481.581 80.8107 481.581 87.04V128H468.397V87.936C468.397 84.096 467.885 80.9387 466.861 78.464C465.837 75.904 464.258 74.0693 462.125 72.96C459.992 71.7653 457.346 71.2533 454.189 71.424C451.629 71.424 449.282 71.8507 447.149 72.704C445.016 73.472 443.138 74.5813 441.517 76.032C439.981 77.4827 438.744 79.1893 437.805 81.152C436.952 83.0293 436.525 85.0773 436.525 87.296V128H429.997C428.888 128 427.778 128 426.669 128C425.56 128 424.45 128 423.341 128Z" fill="white"/>
<path d="M206 58C213.862 58 221.495 60.647 227.669 65.5143C233.843 70.3817 238.198 77.186 240.033 84.8307C241.868 92.4755 241.076 100.515 237.784 107.655C234.492 114.794 228.893 120.618 221.887 124.186C214.882 127.755 206.879 128.861 199.168 127.327C191.458 125.792 184.488 121.706 179.383 115.728C174.278 109.749 171.334 102.225 171.027 94.3693C170.719 86.5134 173.066 78.7828 177.688 72.4231L188.635 80.3794C185.8 84.28 184.361 89.0215 184.55 93.8398C184.738 98.6582 186.544 103.273 189.675 106.94C192.806 110.607 197.081 113.113 201.81 114.054C206.539 114.995 211.448 114.317 215.744 112.128C220.041 109.939 223.475 106.367 225.494 101.988C227.514 97.6095 227.999 92.6783 226.874 87.9895C225.748 83.3006 223.077 79.1273 219.29 76.1419C215.504 73.1566 210.822 71.5331 206 71.5331V58Z" fill="#22D670"/>
<path d="M206 58C200.49 58 195.058 59.3008 190.146 61.7965C185.234 64.2922 180.981 67.9123 177.732 72.3622L188.663 80.3429C190.656 77.6137 193.264 75.3935 196.277 73.8629C199.29 72.3323 202.621 71.5345 206 71.5345V58Z" fill="#D9D9D9"/>
<path d="M127 58C133.922 58 140.689 60.0527 146.445 63.8986C152.201 67.7444 156.687 73.2107 159.336 79.6061C161.985 86.0015 162.678 93.0388 161.327 99.8282C159.977 106.617 156.644 112.854 151.749 117.749C146.854 122.644 140.617 125.977 133.828 127.327C127.039 128.678 120.001 127.985 113.606 125.336C107.211 122.687 101.744 118.201 97.8986 112.445C94.0527 106.689 92 99.9223 92 93H105.533C105.533 97.2458 106.792 101.396 109.151 104.926C111.51 108.457 114.862 111.208 118.785 112.833C122.708 114.458 127.024 114.883 131.188 114.054C135.352 113.226 139.177 111.182 142.179 108.179C145.182 105.177 147.226 101.352 148.054 97.188C148.883 93.0238 148.458 88.7075 146.833 84.785C145.208 80.8624 142.457 77.5097 138.926 75.1509C135.396 72.7921 131.246 71.5331 127 71.5331V58Z" fill="#FFB33A"/>
<path d="M127 58C122.404 58 117.852 58.9053 113.606 60.6642C109.36 62.4231 105.501 65.0012 102.251 68.2513C99.0012 71.5013 96.4231 75.3597 94.6642 79.6061C92.9053 83.8525 92 88.4037 92 93H105.534C105.534 90.1811 106.09 87.3898 107.168 84.7855C108.247 82.1812 109.828 79.8149 111.822 77.8216C113.815 75.8283 116.181 74.2472 118.786 73.1685C121.39 72.0897 124.181 71.5345 127 71.5345V58Z" fill="#D9D9D9"/>
<path d="M526 120C507.5 121 508.5 96.5 524.5 97H588.5H591.5M511 55.5C515.083 64.6821 514.974 69.5958 511 78M566.5 46H577.5C600 49 604.5 82.5 577.5 87.5" stroke="white" stroke-width="5" stroke-linecap="round"/>
<path d="M559.5 46H507C501.5 48 502 54 506.5 55.5H577.5C589.5 58 589.5 75 577 78H508C501 79.5 502 87.5 508 87.5L520 88M590.5 120C583.25 116.5 583 102.5 589.25 97.5H590.5C597 98 598 87.5 590.5 87.5H582L520 88M590.5 120C597.75 120.5 597.5 129.5 590.5 129.5H575.5V120M590.5 120H575.5M575.5 130.5V136C574 139 570.5 140 569 138L563.5 131.5C563.5 130.5 559 128 557.5 130.5L553 136C550 140 547 141 545 136V129.5M575.5 120V114C575.5 109 569 108 567 108.5L550 109C546.413 109.206 545 112 545 116V120M545 120H533M545 120V129.5M545 129.5H518.5C498.5 125 497 94.5 520 88M538.5 64.5V67.5M562 65V67.5M547 67C549.833 69.0101 550.883 68.9557 553.5 67" stroke="white" stroke-width="5" stroke-linecap="round"/>
</svg>
